<svg version="1.1" xmlns="http://www.w3.org/2000/svg" xmlns:xlink="http://www.w3.org/1999/xlink" x="0px" y="0px" style="enable-background:new 0 0 1400 980;" xml:space="preserve" viewBox="112.58 266.77 1176.42 15.73">
<style type="text/css">
	.st0{fill:#18892A;}
	.st1{fill:#0F6D1A;}
	.st2{fill:#AF6A17;}
	.st3{fill:#D88D2B;}
	.st4{fill:#323132;}
	.st5{fill:#F93D3D;}
	.st6{fill:#FFFFFF;}
	.st7{fill:#F9C582;}
	.st8{fill:#999999;}
	.st9{fill:#CECECE;}
	.st10{opacity:0.3;}
	.st11{fill:#F4F4F4;}
	.st12{fill:#F92323;}
	.st13{fill:#28C4E8;}
	.st14{opacity:0.4;}
	.st15{fill:#CCAE2E;}
	.st16{fill:#58585B;}
	.st17{fill:#E6E7E8;}
	.st18{fill:#F70F26;}
	.st19{fill:#123284;}
	.st20{fill:#7C3613;}
	.st21{fill:#63280D;}
	.st22{fill:#893C1A;}
</style>
	
	<g id="cue-2">
		<polygon class="st7" points="1284.5,282.5 984.7,281.3 115.5,277.9 115.5,271.4 984.7,268 1284.5,266.8   "/>
		<g>
			<polygon class="st12" points="125.5,277.9 144.6,278 146.8,271.3 127.7,271.4    "/>
			<polygon class="st12" points="161.2,278.1 180.3,278.2 182.6,271.1 163.5,271.2    "/>
			<polygon class="st12" points="196.9,278.2 216,278.3 218.4,271 199.3,271.1    "/>
			<polygon class="st12" points="232.6,278.4 251.7,278.4 254.2,270.9 235.1,270.9    "/>
			<polygon class="st12" points="268.3,278.5 287.4,278.6 290,270.7 270.9,270.8    "/>
			<polygon class="st12" points="304,278.6 323.1,278.7 325.8,270.6 306.7,270.7    "/>
			<polygon class="st12" points="339.7,278.8 358.8,278.9 361.6,270.4 342.5,270.5    "/>
			<polygon class="st12" points="375.4,278.9 394.5,279 397.4,270.3 378.3,270.4    "/>
			<polygon class="st12" points="411.1,279.1 430.2,279.1 433.2,270.2 414.1,270.2    "/>
			<polygon class="st12" points="446.9,279.2 465.9,279.3 469,270 449.9,270.1    "/>
			<polygon class="st12" points="482.6,279.4 501.6,279.4 504.8,269.9 485.7,269.9    "/>
			<polygon class="st12" points="518.3,279.5 537.3,279.6 540.6,269.7 521.5,269.8    "/>
			<polygon class="st12" points="554,279.6 573,279.7 576.4,269.6 557.3,269.7    "/>
			<polygon class="st12" points="589.7,279.8 608.8,279.9 612.2,269.4 593.1,269.5    "/>
			<polygon class="st12" points="625.4,279.9 644.5,280 648,269.3 628.9,269.4    "/>
			<polygon class="st12" points="661.1,280.1 680.2,280.1 683.8,269.2 664.7,269.2    "/>
			<polygon class="st12" points="696.8,280.2 715.9,280.3 719.6,269 700.5,269.1    "/>
			<polygon class="st12" points="732.5,280.3 751.6,280.4 755.4,268.9 736.3,269    "/>
			<polygon class="st12" points="768.2,280.5 787.3,280.6 791.2,268.7 772.1,268.8    "/>
			<polygon class="st12" points="803.9,280.6 823,280.7 827,268.6 807.9,268.7    "/>
			<polygon class="st12" points="839.6,280.8 858.7,280.8 862.8,268.5 843.7,268.5    "/>
			<polygon class="st12" points="875.3,280.9 894.4,281 898.6,268.3 879.5,268.4    "/>
			<polygon class="st12" points="911,281 930.1,281.1 934.4,268.2 915.3,268.2    "/>
			<polygon class="st12" points="951.1,268.1 946.8,281.2 965.8,281.3 970.2,268    "/>
		</g>
		<polygon class="st4" points="984.7,268 984.7,281.3 1284.5,282.5 1284.5,266.8   "/>
		<polygon class="st12" points="1224.5,282.3 1258.5,282.4 1258.5,266.9 1224.5,267   "/>
		<path class="st8" d="M1289,278c0,2.5-2,4.5-4.5,4.5l0,0c-2.5,0-4.5-2-4.5-4.5v-6.7c0-2.5,2-4.5,4.5-4.5l0,0c2.5,0,4.5,2,4.5,4.5    V278z"/>
		<polygon class="st9" points="1276.5,282.5 1284.5,282.5 1284.5,266.8 1276.5,266.8   "/>
		<polygon class="st9" points="979.4,281.3 984.7,281.3 984.7,268 979.4,268   "/>
		<path class="st4" d="M118.2,275.1c0,1.5-1.2,2.8-2.8,2.8l0,0c-1.5,0-2.8-1.2-2.8-2.8v-0.9c0-1.5,1.2-2.8,2.8-2.8l0,0    c1.5,0,2.8,1.2,2.8,2.8V275.1z"/>
		<rect x="115.5" y="271.4" class="st4" width="12.4" height="6.5"/>
		<g class="st10">
			<polygon class="st11" points="115.5,271.4 115.5,275.4 1284.5,270.8 1284.5,266.8 984.7,268    "/>
		</g>
	</g>

</svg>
