<?xml version="1.0" encoding="utf-8"?>
<svg version="1.1" xmlns="http://www.w3.org/2000/svg" xmlns:xlink="http://www.w3.org/1999/xlink" width="1173.5" height="20" viewBox="115.5 123.9 1173.5 16">
<style type="text/css">
    .st4{fill:#323132;}
    .st6{fill:#FFFFFF;}
    .st7{fill:#F9C582;}
    .st8{fill:#999999;}
    .st9{fill:#CECECE;}
    .st10{opacity:0.3;}
    .st11{fill:#F4F4F4;}
</style>
<g id="cue-1">
    <polygon class="st7" points="1284.5,139.7 984.7,138.4 115.5,135 115.5,128.5 984.7,125.1 1284.5,123.9"/>
    <polygon class="st4" points="984.7,125.1 984.7,138.4 1284.5,139.7 1284.5,123.9"/>
    <path class="st8" d="M1289,135.2c0,2.5-2,4.5-4.5,4.5l0,0c-2.5,0-4.5-2-4.5-4.5v-6.7c0-2.5,2-4.5,4.5-4.5l0,0c2.5,0,4.5,2,4.5,4.5 V135.2z"/>
    <polygon class="st9" points="1276.5,139.6 1284.5,139.7 1284.5,123.9 1276.5,123.9"/>
    <polygon class="st9" points="979.4,138.4 984.7,138.4 984.7,125.1 979.4,125.2"/>
    <path class="st4" d="M118.2,132.3c0,1.5-1.2,2.8-2.8,2.8l0,0c-1.5,0-2.8-1.2-2.8-2.8v-0.9c0-1.5,1.2-2.8,2.8-2.8l0,0 c1.5,0,2.8,1.2,2.8,2.8V132.3z"/>
    <rect x="115.5" y="128.5" class="st6" width="12.4" height="6.5"/>
    <g class="st10">
        <polygon class="st11" points="115.5,128.5 115.5,132.5 1284.5,127.9 1284.5,123.9 984.7,125.1"/>
    </g>
</g>
</svg>