<svg version="1.1" xmlns="http://www.w3.org/2000/svg" xmlns:xlink="http://www.w3.org/1999/xlink" x="0px" y="0px" style="enable-background:new 0 0 1400 980;" xml:space="preserve" viewBox="112.58 404.77 1180.83 30.85">
<style type="text/css">
	.st0{fill:#18892A;}
	.st1{fill:#0F6D1A;}
	.st2{fill:#AF6A17;}
	.st3{fill:#D88D2B;}
	.st4{fill:#323132;}
	.st5{fill:#F93D3D;}
	.st6{fill:#FFFFFF;}
	.st7{fill:#F9C582;}
	.st8{fill:#999999;}
	.st9{fill:#CECECE;}
	.st10{opacity:0.3;}
	.st11{fill:#F4F4F4;}
	.st12{fill:#F92323;}
	.st13{fill:#28C4E8;}
	.st14{opacity:0.4;}
	.st15{fill:#CCAE2E;}
	.st16{fill:#58585B;}
	.st17{fill:#E6E7E8;}
	.st18{fill:#F70F26;}
	.st19{fill:#123284;}
	.st20{fill:#7C3613;}
	.st21{fill:#63280D;}
	.st22{fill:#893C1A;}
</style>
	
	<g id="cue-3">
		<g>
		
			<polygon class="st13" points="1284.5,428.1 984.7,426.8 115.5,423.4 115.5,417 984.7,413.6 1284.5,412.3    "/>
			<polygon class="st8" points="984.7,409.5 984.7,430.9 1284.5,432.1 1284.5,408.3    "/>
			<polygon class="st8" points="984.7,409.5 984.7,430.9 1284.5,432.1 1284.5,408.3    "/>
			<g class="st14">
				<polygon class="st11" points="984.7,409.5 984.7,415.9 1284.5,414.7 1284.5,408.3     "/>
			</g>
			<path class="st8" d="M1293.4,426.8c0,4.9-4,8.8-8.8,8.8l0,0c-4.9,0-8.8-4-8.8-8.8v-13.2c0-4.9,4-8.8,8.8-8.8l0,0     c4.9,0,8.8,4,8.8,8.8V426.8z"/>
			<polygon class="st9" points="1212,433.8 1220.1,433.9 1220.1,406.5 1212,406.6    "/>
			<polygon class="st9" points="1139.5,433.8 1147.6,433.9 1147.6,406.5 1139.5,406.6    "/>
			<polygon class="st9" points="1078.5,433.8 1086.6,433.9 1086.6,406.5 1078.5,406.6    "/>
			<polygon class="st9" points="1020.4,433.8 1028.5,433.9 1028.5,406.5 1020.4,406.6    "/>
			<polygon class="st9" points="1269.2,435.3 1277.3,435.4 1277.3,405 1269.2,405.1    "/>
			<polygon class="st9" points="973.7,426.8 979,426.8 979,413.6 973.7,413.6    "/>
			<path class="st13" d="M118.2,420.7c0,1.5-1.2,2.8-2.8,2.8l0,0c-1.5,0-2.8-1.2-2.8-2.8v-0.9c0-1.5,1.2-2.8,2.8-2.8l0,0     c1.5,0,2.8,1.2,2.8,2.8V420.7z"/>
			<rect x="115.5" y="417" class="st13" width="12.4" height="6.5"/>
			<g class="st10">
				<polygon class="st11" points="984.7,413.6 115.5,417 115.5,421 984.7,417.5     "/>
			</g>
		</g>
		<path class="st15" d="M990.7,424.8c0,3.4-2.7,6.1-6,6.1l0,0c-3.3,0-6-0.6-6-4v-13.3c0-3.4,2.7-4,6-4l0,0c3.3,0,6,2.7,6,6.1V424.8z    "/>
		<polygon class="st4" points="1028.5,431 1078.5,431.2 1078.5,409.2 1028.5,409.4   "/>
		<polygon class="st4" points="1147.6,431.5 1212,431.8 1212,408.6 1147.6,408.9   "/>
		<polygon class="st9" points="986.7,433.8 994.8,433.9 994.8,406.5 986.7,406.6   "/>
		<g>
			<g>
				<path class="st9" d="M1001.9,426.6c0,1-0.8,1.8-1.8,1.8l0,0c-1,0-1.8-0.8-1.8-1.8l0,0c0-1,0.8-1.8,1.8-1.8l0,0      C1001.1,424.8,1001.9,425.6,1001.9,426.6L1001.9,426.6z"/>
				<path class="st9" d="M1001.9,420.2c0,1-0.8,1.8-1.8,1.8l0,0c-1,0-1.8-0.8-1.8-1.8l0,0c0-1,0.8-1.8,1.8-1.8l0,0      C1001.1,418.4,1001.9,419.2,1001.9,420.2L1001.9,420.2z"/>
				<path class="st9" d="M1001.9,413.8c0,1-0.8,1.8-1.8,1.8l0,0c-1,0-1.8-0.8-1.8-1.8l0,0c0-1,0.8-1.8,1.8-1.8l0,0      C1001.1,412,1001.9,412.8,1001.9,413.8L1001.9,413.8z"/>
			</g>
		</g>
		<polygon class="st16" points="1034.7,431.1 1039.9,431.1 1039.9,409.3 1034.7,409.3   "/>
		<polygon class="st16" points="1045.5,431.1 1050.7,431.1 1050.7,409.3 1045.5,409.3   "/>
		<polygon class="st16" points="1056.3,431.1 1061.5,431.2 1061.5,409.2 1056.3,409.3   "/>
		<polygon class="st16" points="1067.1,431.2 1072.3,431.2 1072.3,409.2 1067.1,409.2   "/>
		<g>
			<g>
				<polygon class="st16" points="1153.1,431.5 1158.4,431.6 1158.4,408.8 1153.1,408.9     "/>
				<polygon class="st16" points="1165.2,431.6 1170.4,431.6 1170.4,408.8 1165.2,408.8     "/>
				<polygon class="st16" points="1177.2,431.6 1182.4,431.7 1182.4,408.7 1177.2,408.8     "/>
				<polygon class="st16" points="1189.2,431.7 1194.5,431.7 1194.5,408.7 1189.2,408.7     "/>
				<polygon class="st16" points="1201.2,431.7 1206.5,431.8 1206.5,408.6 1201.2,408.7     "/>
			</g>
		</g>
	</g>
	
</svg>
