<svg version="1.1" xmlns="http://www.w3.org/2000/svg" xmlns:xlink="http://www.w3.org/1999/xlink" x="0px" y="0px" style="enable-background:new 0 0 1400 2600;" xml:space="preserve" viewBox="112.58 1613.9 1176.42 15.8">
<style type="text/css">
	.st0{fill:#18892A;}
	.st1{fill:#0F6D1A;}
	.st2{fill:#AF6A17;}
	.st3{fill:#D88D2B;}
	.st4{fill:#323132;}
	.st5{fill:#F93D3D;}
	.st6{fill:#FFFFFF;}
	.st7{fill:#F9C582;}
	.st8{fill:#999999;}
	.st9{fill:#CECECE;}
	.st10{opacity:0.3;}
	.st11{fill:#F4F4F4;}
	.st12{fill:#F92323;}
	.st13{fill:#28C4E8;}
	.st14{opacity:0.4;}
	.st15{fill:#CCAE2E;}
	.st16{fill:#58585B;}
	.st17{fill:#E6E7E8;}
	.st18{fill:#F70F26;}
	.st19{fill:#123284;}
	.st20{fill:#7C3613;}
	.st21{fill:#63280D;}
	.st22{fill:#893C1A;}
	.variant-ebony .st7 { fill:#2B1B12; }
.variant-ebony .st4 { fill:#1A1A1A; }
.variant-ebony .st9 { fill:#C9A24D; }
.variant-ebony .st8 { fill:#8A6A2F; }
.variant-carbon .st7 { fill:#2A2E35; }
.variant-carbon .st4 { fill:#0B1220; }
.variant-carbon .st9 { fill:#38BDF8; }
.variant-carbon .st8 { fill:#94A3B8; }
.variant-rosewood .st7 { fill:#7C3A1C; }
.variant-rosewood .st4 { fill:#3B1C10; }
.variant-rosewood .st9 { fill:#E6E7E8; }
.variant-rosewood .st8 { fill:#B08968; }
</style>


<g id="cue-fire-1" transform="translate(0 1490)">
    <polygon class="st4" points="1284.5,139.7 984.7,138.4 115.5,135 115.5,128.5 984.7,125.1 1284.5,123.9"/>
    
    <polygon fill="#E34110" points="984.7,125.1 984.7,138.4 1284.5,139.7 1284.5,123.9"/>
    <polygon fill="#F9A023" points="1080,126 1080,137.5 1284.5,139.7 1284.5,123.9"/>
    
    <polygon fill="#F92323" points="400,130 450,133 400,134 350,131"/>
    <polygon fill="#F9A023" points="600,129 650,132 600,133 550,130"/>
    
    <polygon class="st9" points="1276.5,139.6 1284.5,139.7 1284.5,123.9 1276.5,123.9"/>
    <polygon class="st9" points="979.4,138.4 984.7,138.4 984.7,125.1 979.4,125.2"/>

    <path class="st4" d="M1289,135.2c0,2.5-2,4.5-4.5,4.5l0,0c-2.5,0-4.5-2-4.5-4.5v-6.7c0-2.5,2-4.5,4.5-4.5l0,0c2.5,0,4.5,2,4.5,4.5V135.2z"/>

    <path fill="#F92323" d="M118.2,132.3c0,1.5-1.2,2.8-2.8,2.8l0,0c-1.5,0-2.8-1.2-2.8-2.8v-0.9c0-1.5,1.2-2.8,2.8-2.8l0,0c1.5,0,2.8,1.2,2.8,2.8V132.3z"/>
    <rect x="115.5" y="128.5" fill="#F93D3D" width="12.4" height="6.5"/>

    <g class="st10">
        <polygon class="st11" points="115.5,128.5 115.5,130.5 1284.5,125.9 1284.5,123.9 984.7,125.1"/>
    </g>
</g>

</svg>