<svg version="1.1" xmlns="http://www.w3.org/2000/svg" xmlns:xlink="http://www.w3.org/1999/xlink" x="0px" y="0px" style="enable-background:new 0 0 1400 980;" xml:space="preserve" viewBox="112.58 557.7 1176.42 15.8">
<style type="text/css">
	/* Palestinian flag colors only */
	.st0{fill:#007A3D;}   /* green */
	.st1{fill:#007A3D;}
	.st2{fill:#000000;}   /* black */
	.st3{fill:#000000;}
	.st4{fill:#000000;}
	.st5{fill:#CE1126;}   /* red */
	.st6{fill:#FFFFFF;}   /* white */
	.st7{fill:#FFFFFF;}
	.st8{fill:#000000;}
	.st9{fill:#000000;}
	.st10{opacity:0.3;}
	.st11{fill:#FFFFFF;}
	.st12{fill:#CE1126;}
	.st13{fill:#007A3D;}
	.st14{opacity:0.4;}
	.st15{fill:#007A3D;}
	.st16{fill:#000000;}
	.st17{fill:#FFFFFF;}
	.st18{fill:#CE1126;}
	.st19{fill:#007A3D;}
	.st20{fill:#000000;}
	.st21{fill:#000000;}
	.st22{fill:#000000;}
</style>

	<g id="cue-4">
		<polygon class="st17" points="1284.5,573.5 984.7,572.3 115.5,568.9 115.5,562.4 984.7,559 1284.5,557.8"/>
		<g>
			<polygon class="st18" points="506.4,560.9 506.4,570.4 612.1,570.8 612.1,560.5"/>
			<polygon class="st6" points="481.3,561 481.3,570.3 506.4,570.4 506.4,560.9"/>
			<polygon class="st6" points="612.1,570.8 637.1,570.9 637.1,560.4 612.1,560.5"/>
			<polygon class="st19" points="127.9,562.4 127.9,569 258.4,569.5 252.5,561.9"/>
			<polygon class="st6" points="272.6,561.8 272.6,569.5 299.5,569.6 293.4,561.7"/>
			<polygon class="st6" points="252.5,561.9 258.4,569.5 272.6,569.5 272.6,561.8"/>
			<polygon class="st19" points="867.9,559.5 858.3,571.8 979.4,572.3 979.4,559"/>
			<polygon class="st6" points="826.7,559.6 817.3,571.7 843.8,571.8 843.8,559.6"/>
			<polygon class="st6" points="843.8,559.6 843.8,571.8 858.3,571.8 867.9,559.5"/>
			<polygon class="st18" points="293.4,561.7 299.5,569.6 351.9,569.8 345.4,561.5"/>
			<polygon class="st18" points="774.4,559.8 765.3,571.4 817.3,571.7 826.7,559.6"/>
			<polygon class="st6" points="406.1,561.3 408.7,570 447.8,570.2 443.4,561.1"/>
			<polygon class="st6" points="365.1,561.4 367.6,569.9 408.7,570 406.1,561.3"/>
			<polygon class="st6" points="345.4,561.5 351.9,569.8 367.6,569.9 365.1,561.4"/>
			<polygon class="st6" points="676.2,560.2 670.9,571.1 709.5,571.2 712.7,560.1"/>
			<polygon class="st6" points="712.7,560.1 709.5,571.2 750.5,571.4 753.8,559.9"/>
			<polygon class="st6" points="753.8,559.9 750.5,571.4 765.3,571.4 774.4,559.8"/>
			<polygon class="st19" points="458.2,561.1 460.9,570.3 481.3,570.3 481.3,561"/>
			<polygon class="st19" points="443.4,561.1 447.8,570.2 460.9,570.3 458.2,561.1"/>
			<polygon class="st19" points="637.8,560.4 637.8,570.9 657.4,571 660.5,560.3"/>
			<polygon class="st19" points="660.5,560.3 657.4,571 670.9,571.1 676.2,560.2"/>
		</g>
		<polygon class="st4" points="984.7,559 984.7,572.3 1284.5,573.5 1284.5,557.8"/>
		<polygon class="st19" points="1224.5,573.3 1241.5,573.4 1241.5,558 1224.5,558"/>
		<path class="st8" d="M1289,569c0,2.5-2,4.5-4.5,4.5s-4.5-2-4.5-4.5v-6.8c0-2.5,2-4.5,4.5-4.5s4.5,2,4.5,4.5V569z"/>
		<polygon class="st9" points="1276.5,573.5 1284.5,573.5 1284.5,557.8 1276.5,557.8"/>
		<polygon class="st6" points="979.4,572.3 984.7,572.3 984.7,559 979.4,559"/>
		<path class="st4" d="M118.2,566.1c0,1.5-1.2,2.8-2.8,2.8s-2.8-1.2-2.8-2.8v-0.9c0-1.5,1.2-2.8,2.8-2.8s2.8,1.2,2.8,2.8V566.1z"/>
		<rect x="115.5" y="562.4" class="st6" width="12.4" height="6.5"/>
		<g class="st10">
			<polygon class="st11" points="115.5,562.4 115.5,566.4 1284.5,561.8 1284.5,557.8 984.7,559"/>
		</g>
	</g>
</svg>
