<svg version="1.1" xmlns="http://www.w3.org/2000/svg" xmlns:xlink="http://www.w3.org/1999/xlink" x="0px" y="0px" style="enable-background:new 0 0 1400 2600;" xml:space="preserve" viewBox="112.58 1065.3 1180.83 30.83">
<style type="text/css">
	.st0{fill:#18892A;}
	.st1{fill:#0F6D1A;}
	.st2{fill:#AF6A17;}
	.st3{fill:#D88D2B;}
	.st4{fill:#323132;}
	.st5{fill:#F93D3D;}
	.st6{fill:#FFFFFF;}
	.st7{fill:#F9C582;}
	.st8{fill:#999999;}
	.st9{fill:#CECECE;}
	.st10{opacity:0.3;}
	.st11{fill:#F4F4F4;}
	.st12{fill:#F92323;}
	.st13{fill:#28C4E8;}
	.st14{opacity:0.4;}
	.st15{fill:#CCAE2E;}
	.st16{fill:#58585B;}
	.st17{fill:#E6E7E8;}
	.st18{fill:#F70F26;}
	.st19{fill:#123284;}
	.st20{fill:#7C3613;}
	.st21{fill:#63280D;}
	.st22{fill:#893C1A;}
	.variant-ebony .st7 { fill:#2B1B12; }
.variant-ebony .st4 { fill:#1A1A1A; }
.variant-ebony .st9 { fill:#C9A24D; }
.variant-ebony .st8 { fill:#8A6A2F; }
.variant-carbon .st7 { fill:#2A2E35; }
.variant-carbon .st4 { fill:#0B1220; }
.variant-carbon .st9 { fill:#38BDF8; }
.variant-carbon .st8 { fill:#94A3B8; }
.variant-rosewood .st7 { fill:#7C3A1C; }
.variant-rosewood .st4 { fill:#3B1C10; }
.variant-rosewood .st9 { fill:#E6E7E8; }
.variant-rosewood .st8 { fill:#B08968; }
</style>


<g id="cue-9" transform="translate(0 -180)">
	<!-- shaft -->
	<polygon class="st7" points="1284.5,1268.5 984.7,1267.3 115.5,1263.9 115.5,1257.4 984.7,1254 1284.5,1252.8"/>
	<polygon class="st4" points="984.7,1254 984.7,1267.3 1284.5,1268.5 1284.5,1252.8"/>

	<!-- skull panel -->
	<rect x="1040" y="1254.5" width="160" height="12.5" class="st9"/>

	<!-- skull head -->
	<ellipse cx="1120" cy="1260.7" rx="18" ry="9" class="st11"/>

	<!-- eyes -->
	<ellipse cx="1114" cy="1259.5" rx="3" ry="3.5" class="st4"/>
	<ellipse cx="1126" cy="1259.5" rx="3" ry="3.5" class="st4"/>

	<!-- nose -->
	<polygon class="st4" points="1120,1261 1117,1266 1123,1266"/>

	<!-- jaw -->
	<rect x="1112" y="1267" width="16" height="4" class="st11"/>
	<line x1="1116" y1="1267" x2="1116" y2="1271" class="st4"/>
	<line x1="1120" y1="1267" x2="1120" y2="1271" class="st4"/>
	<line x1="1124" y1="1267" x2="1124" y2="1271" class="st4"/>

	<!-- butt -->
	<path class="st4" d="M1293.4,1267.3c0,4.9-4,8.8-8.8,8.8l0,0c-4.9,0-8.8-4-8.8-8.8v-13.2c0-4.9,4-8.8,8.8-8.8l0,0   c4.9,0,8.8,4,8.8,8.8V1267.3z"/>
	<polygon class="st9" points="1276.5,1268.5 1284.5,1268.5 1284.5,1252.8 1276.5,1252.8"/>

	<!-- tip -->
	<path class="st4" d="M118.2,1261.1c0,1.5-1.2,2.8-2.8,2.8l0,0c-1.5,0-2.8-1.2-2.8-2.8v-0.9c0-1.5,1.2-2.8,2.8-2.8l0,0   c1.5,0,2.8,1.2,2.8,2.8V1261.1z"/>
	<rect x="115.5" y="1257.4" class="st6" width="12.4" height="6.5"/>

	<!-- highlight -->
	<g class="st10">
		<polygon class="st11" points="984.7,1254 115.5,1257.4 115.5,1261.4 984.7,1258"/>
	</g>
</g>

</svg>