<svg version="1.1" xmlns="http://www.w3.org/2000/svg" xmlns:xlink="http://www.w3.org/1999/xlink" viewBox="112 798 1183 86" width="1183" height="86">
<style type="text/css">
    .st4{fill:#323132;}
    .st8{fill:#999999;}
    .st9{fill:#CECECE;}
    .st10{opacity:0.3;}
    .st11{fill:#F4F4F4;}
    .st14{opacity:0.4;}
    .st16{fill:#58585B;}
</style>
<g id="cue-6">
    <g>
        <g>
            <polygon class="st16" points="1284.5,848.9 984.7,847.7 115.5,844.3 115.5,837.8 984.7,834.4 1284.5,833.2"/>
            <polygon class="st8" points="984.7,830.4 984.7,851.7 1284.5,852.9 1284.5,829.2"/>
            <polygon class="st4" points="984.7,830.4 984.7,851.7 1284.5,852.9 1284.5,829.2"/>
            <g class="st14">
                <polygon class="st11" points="984.7,830.4 984.7,836.8 1284.5,835.5 1284.5,829.2"/>
            </g>
            <circle class="st4" cx="1272.2" cy="841.1" r="21.2"/>
            <polygon class="st9" points="973.7,847.7 979,847.7 979,834.4 973.7,834.4"/>
            <path class="st4" d="M118.2,841.5c0,1.5-1.2,2.8-2.8,2.8l0,0c-1.5,0-2.8-1.2-2.8-2.8v-0.9c0-1.5,1.2-2.8,2.8-2.8l0,0
                c1.5,0,2.8,1.2,2.8,2.8V841.5z"/>
            <rect x="115.5" y="837.8" class="st4" width="12.4" height="6.5"/>
            <g class="st10">
                <polygon class="st11" points="984.7,834.4 115.5,837.8 115.5,841.8 984.7,838.4"/>
            </g>
            <path class="st4" d="M990.7,845.6c0,3.4-2.7,6.1-6,6.1l0,0c-3.3,0-6-0.6-6-4v-13.3c0-3.4,2.7-4,6-4l0,0c3.3,0,6,2.7,6,6.1V845.6z"/>
        </g>
    </g>
    <g>
        <path class="st4" d="M978.6,839.2c0,0,1-13.4-2.3-15.5c-7.9-5-34.6,1.2-34.6-25.5c21,24,34.6,8.8,49,19c7.8,5.5,5.8,22,5.8,22
            H978.6z"/>
        <path class="st4" d="M978.6,842.9c0,0,1,13.4-2.3,15.5c-7.9,5-34.6-1.2-34.6,25.5c21-24,34.6-8.8,49-19c7.8-5.5,5.8-22,5.8-22
            H978.6z"/>
    </g>
</g>
</svg>