<svg version="1.1" xmlns="http://www.w3.org/2000/svg" xmlns:xlink="http://www.w3.org/1999/xlink" x="0px" y="0px" style="enable-background:new 0 0 1400 2600;" xml:space="preserve" viewBox="115.5 1396.5 1177.92 30.82">
<style type="text/css">
	.st0{fill:#18892A;}
	.st1{fill:#0F6D1A;}
	.st2{fill:#AF6A17;}
	.st3{fill:#D88D2B;}
	.st4{fill:#323132;}
	.st5{fill:#F93D3D;}
	.st6{fill:#FFFFFF;}
	.st7{fill:#F9C582;}
	.st8{fill:#999999;}
	.st9{fill:#CECECE;}
	.st10{opacity:0.3;}
	.st11{fill:#F4F4F4;}
	.st12{fill:#F92323;}
	.st13{fill:#28C4E8;}
	.st14{opacity:0.4;}
	.st15{fill:#CCAE2E;}
	.st16{fill:#58585B;}
	.st17{fill:#E6E7E8;}
	.st18{fill:#F70F26;}
	.st19{fill:#123284;}
	.st20{fill:#7C3613;}
	.st21{fill:#63280D;}
	.st22{fill:#893C1A;}
	.variant-ebony .st7 { fill:#2B1B12; }
.variant-ebony .st4 { fill:#1A1A1A; }
.variant-ebony .st9 { fill:#C9A24D; }
.variant-ebony .st8 { fill:#8A6A2F; }
.variant-carbon .st7 { fill:#2A2E35; }
.variant-carbon .st4 { fill:#0B1220; }
.variant-carbon .st9 { fill:#38BDF8; }
.variant-carbon .st8 { fill:#94A3B8; }
.variant-rosewood .st7 { fill:#7C3A1C; }
.variant-rosewood .st4 { fill:#3B1C10; }
.variant-rosewood .st9 { fill:#E6E7E8; }
.variant-rosewood .st8 { fill:#B08968; }
</style>


<g id="cue-toxic" transform="translate(0 1280)">
    <polygon class="st4" points="1284.5,139.7 984.7,138.4 115.5,135 115.5,128.5 984.7,125.1 1284.5,123.9"/>
    
    <circle cx="620" cy="132" r="2" class="st13"/>
    <circle cx="650" cy="130" r="1.8" class="st13"/>
    <circle cx="690" cy="133" r="2.2" class="st13"/>
    <circle cx="720" cy="129" r="1.6" class="st13"/>

    <g>
        <polygon class="st13" points="1100,125 1120,125 1110,139 1090,139"/>
        <polygon class="st13" points="1140,125 1160,125 1150,139 1130,139"/>
        <polygon class="st13" points="1180,125 1200,125 1190,139 1170,139"/>
    </g>
    
    <rect x="975" y="125" width="10" height="14" class="st13"/>
    
    <path class="st4" d="M1293.4,138.5c0,4.9-4,8.8-8.8,8.8l0,0c-4.9,0-8.8-4-8.8-8.8v-13.2c0-4.9,4-8.8,8.8-8.8l0,0         c4.9,0,8.8,4,8.8,8.8V138.5z"/>
    <polygon class="st13" points="1276.5,139.7 1284.5,139.7 1284.5,123.9 1276.5,123.9"/>

    <rect x="115.5" y="128.5" class="st13" width="12.4" height="6.5"/>
</g>


</svg>