<?xml version="1.0" encoding="utf-8"?>
<!-- Generator: Adobe Illustrator 19.0.0, SVG Export Plug-In . SVG Version: 6.00 Build 0)  -->
<svg version="1.1" xmlns="http://www.w3.org/2000/svg" xmlns:xlink="http://www.w3.org/1999/xlink" x="0px" y="0px"
	 viewBox="0 0 1400 2600" style="enable-background:new 0 0 1400 2600;" xml:space="preserve">
<style type="text/css">
	.st0{fill:#18892A;}
	.st1{fill:#0F6D1A;}
	.st2{fill:#AF6A17;}
	.st3{fill:#D88D2B;}
	.st4{fill:#323132;}
	.st5{fill:#F93D3D;}
	.st6{fill:#FFFFFF;}
	.st7{fill:#F9C582;}
	.st8{fill:#999999;}
	.st9{fill:#CECECE;}
	.st10{opacity:0.3;}
	.st11{fill:#F4F4F4;}
	.st12{fill:#F92323;}
	.st13{fill:#28C4E8;}
	.st14{opacity:0.4;}
	.st15{fill:#CCAE2E;}
	.st16{fill:#58585B;}
	.st17{fill:#E6E7E8;}
	.st18{fill:#F70F26;}
	.st19{fill:#123284;}
	.st20{fill:#7C3613;}
	.st21{fill:#63280D;}
	.st22{fill:#893C1A;}
	.variant-ebony .st7 { fill:#2B1B12; }
.variant-ebony .st4 { fill:#1A1A1A; }
.variant-ebony .st9 { fill:#C9A24D; }
.variant-ebony .st8 { fill:#8A6A2F; }
.variant-carbon .st7 { fill:#2A2E35; }
.variant-carbon .st4 { fill:#0B1220; }
.variant-carbon .st9 { fill:#38BDF8; }
.variant-carbon .st8 { fill:#94A3B8; }
.variant-rosewood .st7 { fill:#7C3A1C; }
.variant-rosewood .st4 { fill:#3B1C10; }
.variant-rosewood .st9 { fill:#E6E7E8; }
.variant-rosewood .st8 { fill:#B08968; }
</style>
	<g id="cue-1">
		<polygon class="st7" points="1284.5,139.7 984.7,138.4 115.5,135 115.5,128.5 984.7,125.1 1284.5,123.9 		"/>
		<polygon class="st4" points="984.7,125.1 984.7,138.4 1284.5,139.7 1284.5,123.9 		"/>
		<path class="st8" d="M1289,135.2c0,2.5-2,4.5-4.5,4.5l0,0c-2.5,0-4.5-2-4.5-4.5v-6.7c0-2.5,2-4.5,4.5-4.5l0,0c2.5,0,4.5,2,4.5,4.5
			V135.2z"/>
		<polygon class="st9" points="1276.5,139.6 1284.5,139.7 1284.5,123.9 1276.5,123.9 		"/>
		<polygon class="st9" points="979.4,138.4 984.7,138.4 984.7,125.1 979.4,125.2 		"/>
		<path class="st4" d="M118.2,132.3c0,1.5-1.2,2.8-2.8,2.8l0,0c-1.5,0-2.8-1.2-2.8-2.8v-0.9c0-1.5,1.2-2.8,2.8-2.8l0,0
			c1.5,0,2.8,1.2,2.8,2.8V132.3z"/>
		<rect x="115.5" y="128.5" class="st6" width="12.4" height="6.5"/>
		<g class="st10">
			<polygon class="st11" points="115.5,128.5 115.5,132.5 1284.5,127.9 1284.5,123.9 984.7,125.1 			"/>
		</g>
		
	</g>
	<g id="cue-2">
		<polygon class="st7" points="1284.5,282.5 984.7,281.3 115.5,277.9 115.5,271.4 984.7,268 1284.5,266.8 		"/>
		<g>
			<polygon class="st12" points="125.5,277.9 144.6,278 146.8,271.3 127.7,271.4 			"/>
			<polygon class="st12" points="161.2,278.1 180.3,278.2 182.6,271.1 163.5,271.2 			"/>
			<polygon class="st12" points="196.9,278.2 216,278.3 218.4,271 199.3,271.1 			"/>
			<polygon class="st12" points="232.6,278.4 251.7,278.4 254.2,270.9 235.1,270.9 			"/>
			<polygon class="st12" points="268.3,278.5 287.4,278.6 290,270.7 270.9,270.8 			"/>
			<polygon class="st12" points="304,278.6 323.1,278.7 325.8,270.6 306.7,270.7 			"/>
			<polygon class="st12" points="339.7,278.8 358.8,278.9 361.6,270.4 342.5,270.5 			"/>
			<polygon class="st12" points="375.4,278.9 394.5,279 397.4,270.3 378.3,270.4 			"/>
			<polygon class="st12" points="411.1,279.1 430.2,279.1 433.2,270.2 414.1,270.2 			"/>
			<polygon class="st12" points="446.9,279.2 465.9,279.3 469,270 449.9,270.1 			"/>
			<polygon class="st12" points="482.6,279.4 501.6,279.4 504.8,269.9 485.7,269.9 			"/>
			<polygon class="st12" points="518.3,279.5 537.3,279.6 540.6,269.7 521.5,269.8 			"/>
			<polygon class="st12" points="554,279.6 573,279.7 576.4,269.6 557.3,269.7 			"/>
			<polygon class="st12" points="589.7,279.8 608.8,279.9 612.2,269.4 593.1,269.5 			"/>
			<polygon class="st12" points="625.4,279.9 644.5,280 648,269.3 628.9,269.4 			"/>
			<polygon class="st12" points="661.1,280.1 680.2,280.1 683.8,269.2 664.7,269.2 			"/>
			<polygon class="st12" points="696.8,280.2 715.9,280.3 719.6,269 700.5,269.1 			"/>
			<polygon class="st12" points="732.5,280.3 751.6,280.4 755.4,268.9 736.3,269 			"/>
			<polygon class="st12" points="768.2,280.5 787.3,280.6 791.2,268.7 772.1,268.8 			"/>
			<polygon class="st12" points="803.9,280.6 823,280.7 827,268.6 807.9,268.7 			"/>
			<polygon class="st12" points="839.6,280.8 858.7,280.8 862.8,268.5 843.7,268.5 			"/>
			<polygon class="st12" points="875.3,280.9 894.4,281 898.6,268.3 879.5,268.4 			"/>
			<polygon class="st12" points="911,281 930.1,281.1 934.4,268.2 915.3,268.2 			"/>
			<polygon class="st12" points="951.1,268.1 946.8,281.2 965.8,281.3 970.2,268 			"/>
		</g>
		<polygon class="st4" points="984.7,268 984.7,281.3 1284.5,282.5 1284.5,266.8 		"/>
		<polygon class="st12" points="1224.5,282.3 1258.5,282.4 1258.5,266.9 1224.5,267 		"/>
		<path class="st8" d="M1289,278c0,2.5-2,4.5-4.5,4.5l0,0c-2.5,0-4.5-2-4.5-4.5v-6.7c0-2.5,2-4.5,4.5-4.5l0,0c2.5,0,4.5,2,4.5,4.5
			V278z"/>
		<polygon class="st9" points="1276.5,282.5 1284.5,282.5 1284.5,266.8 1276.5,266.8 		"/>
		<polygon class="st9" points="979.4,281.3 984.7,281.3 984.7,268 979.4,268 		"/>
		<path class="st4" d="M118.2,275.1c0,1.5-1.2,2.8-2.8,2.8l0,0c-1.5,0-2.8-1.2-2.8-2.8v-0.9c0-1.5,1.2-2.8,2.8-2.8l0,0
			c1.5,0,2.8,1.2,2.8,2.8V275.1z"/>
		<rect x="115.5" y="271.4" class="st4" width="12.4" height="6.5"/>
		<g class="st10">
			<polygon class="st11" points="115.5,271.4 115.5,275.4 1284.5,270.8 1284.5,266.8 984.7,268 			"/>
		</g>
	</g>
	<g id="cue-3">
		<g>
		
			<polygon class="st13" points="1284.5,428.1 984.7,426.8 115.5,423.4 115.5,417 984.7,413.6 1284.5,412.3 			"/>
			<polygon class="st8" points="984.7,409.5 984.7,430.9 1284.5,432.1 1284.5,408.3 			"/>
			<polygon class="st8" points="984.7,409.5 984.7,430.9 1284.5,432.1 1284.5,408.3 			"/>
			<g class="st14">
				<polygon class="st11" points="984.7,409.5 984.7,415.9 1284.5,414.7 1284.5,408.3 				"/>
			</g>
			<path class="st8" d="M1293.4,426.8c0,4.9-4,8.8-8.8,8.8l0,0c-4.9,0-8.8-4-8.8-8.8v-13.2c0-4.9,4-8.8,8.8-8.8l0,0
				c4.9,0,8.8,4,8.8,8.8V426.8z"/>
			<polygon class="st9" points="1212,433.8 1220.1,433.9 1220.1,406.5 1212,406.6 			"/>
			<polygon class="st9" points="1139.5,433.8 1147.6,433.9 1147.6,406.5 1139.5,406.6 			"/>
			<polygon class="st9" points="1078.5,433.8 1086.6,433.9 1086.6,406.5 1078.5,406.6 			"/>
			<polygon class="st9" points="1020.4,433.8 1028.5,433.9 1028.5,406.5 1020.4,406.6 			"/>
			<polygon class="st9" points="1269.2,435.3 1277.3,435.4 1277.3,405 1269.2,405.1 			"/>
			<polygon class="st9" points="973.7,426.8 979,426.8 979,413.6 973.7,413.6 			"/>
			<path class="st13" d="M118.2,420.7c0,1.5-1.2,2.8-2.8,2.8l0,0c-1.5,0-2.8-1.2-2.8-2.8v-0.9c0-1.5,1.2-2.8,2.8-2.8l0,0
				c1.5,0,2.8,1.2,2.8,2.8V420.7z"/>
			<rect x="115.5" y="417" class="st13" width="12.4" height="6.5"/>
			<g class="st10">
				<polygon class="st11" points="984.7,413.6 115.5,417 115.5,421 984.7,417.5 				"/>
			</g>
		</g>
		<path class="st15" d="M990.7,424.8c0,3.4-2.7,6.1-6,6.1l0,0c-3.3,0-6-0.6-6-4v-13.3c0-3.4,2.7-4,6-4l0,0c3.3,0,6,2.7,6,6.1V424.8z
			"/>
		<polygon class="st4" points="1028.5,431 1078.5,431.2 1078.5,409.2 1028.5,409.4 		"/>
		<polygon class="st4" points="1147.6,431.5 1212,431.8 1212,408.6 1147.6,408.9 		"/>
		<polygon class="st9" points="986.7,433.8 994.8,433.9 994.8,406.5 986.7,406.6 		"/>
		<g>
			<g>
				<path class="st9" d="M1001.9,426.6c0,1-0.8,1.8-1.8,1.8l0,0c-1,0-1.8-0.8-1.8-1.8l0,0c0-1,0.8-1.8,1.8-1.8l0,0
					C1001.1,424.8,1001.9,425.6,1001.9,426.6L1001.9,426.6z"/>
				<path class="st9" d="M1001.9,420.2c0,1-0.8,1.8-1.8,1.8l0,0c-1,0-1.8-0.8-1.8-1.8l0,0c0-1,0.8-1.8,1.8-1.8l0,0
					C1001.1,418.4,1001.9,419.2,1001.9,420.2L1001.9,420.2z"/>
				<path class="st9" d="M1001.9,413.8c0,1-0.8,1.8-1.8,1.8l0,0c-1,0-1.8-0.8-1.8-1.8l0,0c0-1,0.8-1.8,1.8-1.8l0,0
					C1001.1,412,1001.9,412.8,1001.9,413.8L1001.9,413.8z"/>
			</g>
		</g>
		<polygon class="st16" points="1034.7,431.1 1039.9,431.1 1039.9,409.3 1034.7,409.3 		"/>
		<polygon class="st16" points="1045.5,431.1 1050.7,431.1 1050.7,409.3 1045.5,409.3 		"/>
		<polygon class="st16" points="1056.3,431.1 1061.5,431.2 1061.5,409.2 1056.3,409.3 		"/>
		<polygon class="st16" points="1067.1,431.2 1072.3,431.2 1072.3,409.2 1067.1,409.2 		"/>
		<g>
			<g>
				<polygon class="st16" points="1153.1,431.5 1158.4,431.6 1158.4,408.8 1153.1,408.9 				"/>
				<polygon class="st16" points="1165.2,431.6 1170.4,431.6 1170.4,408.8 1165.2,408.8 				"/>
				<polygon class="st16" points="1177.2,431.6 1182.4,431.7 1182.4,408.7 1177.2,408.8 				"/>
				<polygon class="st16" points="1189.2,431.7 1194.5,431.7 1194.5,408.7 1189.2,408.7 				"/>
				<polygon class="st16" points="1201.2,431.7 1206.5,431.8 1206.5,408.6 1201.2,408.7 				"/>
			</g>
		</g>
	</g>
	<g id="cue-4">
		<polygon class="st17" points="1284.5,573.5 984.7,572.3 115.5,568.9 115.5,562.4 984.7,559 1284.5,557.8 		"/>
		<g>
			<polygon class="st18" points="506.4,560.9 506.4,570.4 612.1,570.8 612.1,560.5 			"/>
			<polygon class="st6" points="481.3,561 481.3,570.3 506.4,570.4 506.4,560.9 			"/>
			<polygon class="st6" points="612.1,570.8 637.1,570.9 637.1,560.4 612.1,560.5 			"/>
			<polygon class="st19" points="127.9,562.4 127.9,569 258.4,569.5 252.5,561.9 			"/>
			<polygon class="st6" points="272.6,561.8 272.6,569.5 299.5,569.6 293.4,561.7 			"/>
			<polygon class="st6" points="252.5,561.9 258.4,569.5 272.6,569.5 272.6,561.8 			"/>
			<polygon class="st19" points="867.9,559.5 858.3,571.8 979.4,572.3 979.4,559 			"/>
			<polygon class="st6" points="826.7,559.6 817.3,571.7 843.8,571.8 843.8,559.6 			"/>
			<polygon class="st6" points="843.8,559.6 843.8,571.8 858.3,571.8 867.9,559.5 			"/>
			<polygon class="st18" points="293.4,561.7 299.5,569.6 351.9,569.8 345.4,561.5 			"/>
			<polygon class="st18" points="774.4,559.8 765.3,571.4 817.3,571.7 826.7,559.6 			"/>
			<polygon class="st6" points="406.1,561.3 408.7,570 447.8,570.2 443.4,561.1 			"/>
			<polygon class="st6" points="365.1,561.4 367.6,569.9 408.7,570 406.1,561.3 			"/>
			<polygon class="st6" points="345.4,561.5 351.9,569.8 367.6,569.9 365.1,561.4 			"/>
			<polygon class="st6" points="676.2,560.2 670.9,571.1 709.5,571.2 712.7,560.1 			"/>
			<polygon class="st6" points="712.7,560.1 709.5,571.2 750.5,571.4 753.8,559.9 			"/>
			<polygon class="st6" points="753.8,559.9 750.5,571.4 765.3,571.4 774.4,559.8 			"/>
			<polygon class="st19" points="458.2,561.1 460.9,570.3 481.3,570.3 481.3,561 			"/>
			<polygon class="st19" points="443.4,561.1 447.8,570.2 460.9,570.3 458.2,561.1 			"/>
			<polygon class="st19" points="637.8,560.4 637.8,570.9 657.4,571 660.5,560.3 			"/>
			<polygon class="st19" points="660.5,560.3 657.4,571 670.9,571.1 676.2,560.2 			"/>
		</g>
		<polygon class="st4" points="984.7,559 984.7,572.3 1284.5,573.5 1284.5,557.8 		"/>
		<polygon class="st19" points="1224.5,573.3 1241.5,573.4 1241.5,558 1224.5,558 		"/>
		<path class="st8" d="M1289,569c0,2.5-2,4.5-4.5,4.5l0,0c-2.5,0-4.5-2-4.5-4.5v-6.8c0-2.5,2-4.5,4.5-4.5l0,0c2.5,0,4.5,2,4.5,4.5
			V569z"/>
		<polygon class="st9" points="1276.5,573.5 1284.5,573.5 1284.5,557.8 1276.5,557.8 		"/>
		<polygon class="st6" points="979.4,572.3 984.7,572.3 984.7,559 979.4,559 		"/>
		<path class="st4" d="M118.2,566.1c0,1.5-1.2,2.8-2.8,2.8l0,0c-1.5,0-2.8-1.2-2.8-2.8v-0.9c0-1.5,1.2-2.8,2.8-2.8l0,0
			c1.5,0,2.8,1.2,2.8,2.8V566.1z"/>
		<rect x="115.5" y="562.4" class="st6" width="12.4" height="6.5"/>
		<g class="st10">
			<polygon class="st11" points="115.5,562.4 115.5,566.4 1284.5,561.8 1284.5,557.8 984.7,559 			"/>
		</g>
	</g>
	<g id="cue-5">
		<g>
			<polygon class="st9" points="1284.5,716.9 984.7,715.6 115.5,712.2 115.5,705.7 984.7,702.3 1284.5,701.1 			"/>
			<polygon class="st8" points="984.7,698.3 984.7,719.6 1284.5,720.9 1284.5,697.1 			"/>
			<path class="st20" d="M1293.4,715.6c0,4.9-4,8.8-8.8,8.8l0,0c-4.9,0-8.8-4-8.8-8.8v-13.2c0-4.9,4-8.8,8.8-8.8l0,0
				c4.9,0,8.8,4,8.8,8.8V715.6z"/>
			<polygon class="st20" points="984.7,698.3 984.7,719.6 1284.5,720.9 1284.5,697.1 			"/>
			<rect x="1235.4" y="711.6" class="st21" width="33.8" height="2"/>
			<rect x="1194.6" y="711.6" class="st21" width="24.9" height="2"/>
			<rect x="993" y="711.6" class="st21" width="51.7" height="2"/>
			<rect x="1061.7" y="711.6" class="st21" width="117" height="2"/>
			<rect x="1216.8" y="699.6" class="st21" width="60.5" height="2.4"/>
			<rect x="1137.2" y="699.6" class="st21" width="60.5" height="2.4"/>
			<rect x="1029.5" y="699.6" class="st21" width="60.5" height="2.4"/>
			<g class="st14">
				<polygon class="st11" points="984.7,698.3 984.7,704.7 1284.5,703.5 1284.5,697.1 				"/>
			</g>
			<polygon class="st9" points="973.7,715.6 979,715.6 979,702.3 973.7,702.4 			"/>
			<path class="st9" d="M118.2,709.5c0,1.5-1.2,2.8-2.8,2.8l0,0c-1.5,0-2.8-1.2-2.8-2.8v-0.9c0-1.5,1.2-2.8,2.8-2.8l0,0
				c1.5,0,2.8,1.2,2.8,2.8V709.5z"/>
			<rect x="115.5" y="705.7" class="st9" width="12.4" height="6.5"/>
			<g class="st10">
				<polygon class="st11" points="984.7,702.3 115.5,705.7 115.5,709.7 984.7,706.3 				"/>
			</g>
		</g>
		<path class="st20" d="M990.7,713.5c0,3.4-2.7,6.1-6,6.1l0,0c-3.3,0-6-0.6-6-4v-13.3c0-3.4,2.7-4,6-4l0,0c3.3,0,6,2.7,6,6.1V713.5z
			"/>
		<polygon class="st22" points="978.6,739.8 996.5,735.9 996.5,682.1 978.6,678.2 		"/>
	</g>
	<g id="cue-6">
		<g>
			<g>
				<polygon class="st16" points="1284.5,848.9 984.7,847.7 115.5,844.3 115.5,837.8 984.7,834.4 1284.5,833.2 				"/>
				<polygon class="st8" points="984.7,830.4 984.7,851.7 1284.5,852.9 1284.5,829.2 				"/>
				<polygon class="st4" points="984.7,830.4 984.7,851.7 1284.5,852.9 1284.5,829.2 				"/>
				<g class="st14">
					<polygon class="st11" points="984.7,830.4 984.7,836.8 1284.5,835.5 1284.5,829.2 					"/>
				</g>
				<circle class="st4" cx="1272.2" cy="841.1" r="21.2"/>
				<polygon class="st9" points="973.7,847.7 979,847.7 979,834.4 973.7,834.4 				"/>
				<path class="st4" d="M118.2,841.5c0,1.5-1.2,2.8-2.8,2.8l0,0c-1.5,0-2.8-1.2-2.8-2.8v-0.9c0-1.5,1.2-2.8,2.8-2.8l0,0
					c1.5,0,2.8,1.2,2.8,2.8V841.5z"/>
				<rect x="115.5" y="837.8" class="st4" width="12.4" height="6.5"/>
				<g class="st10">
					<polygon class="st11" points="984.7,834.4 115.5,837.8 115.5,841.8 984.7,838.4 					"/>
				</g>
				<path class="st4" d="M990.7,845.6c0,3.4-2.7,6.1-6,6.1l0,0c-3.3,0-6-0.6-6-4v-13.3c0-3.4,2.7-4,6-4l0,0c3.3,0,6,2.7,6,6.1V845.6
					z"/>
			</g>
		</g>
		<g>
			<path class="st4" d="M978.6,839.2c0,0,1-13.4-2.3-15.5c-7.9-5-34.6,1.2-34.6-25.5c21,24,34.6,8.8,49,19c7.8,5.5,5.8,22,5.8,22
				H978.6z"/>
			<path class="st4" d="M978.6,842.9c0,0,1,13.4-2.3,15.5c-7.9,5-34.6-1.2-34.6,25.5c21-24,34.6-8.8,49-19c7.8-5.5,5.8-22,5.8-22
				H978.6z"/>
		</g>
	</g>




<g id="cue-8" transform="translate(0 -160)">
	<polygon class="st13" points="1284.5,1132.8 984.7,1131.6 115.5,1128.2 115.5,1121.7 984.7,1118.3 1284.5,1117.1"/>
	<polygon class="st8" points="984.7,1114.3 984.7,1135.6 1284.5,1136.9 1284.5,1113.1"/>

	<!-- decorative rings -->
	<g>
		<rect x="1030" y="1114.3" width="8" height="21.3" class="st9"/>
		<rect x="1050" y="1114.3" width="8" height="21.3" class="st9"/>
		<rect x="1070" y="1114.3" width="8" height="21.3" class="st9"/>
	</g>

	<!-- long inlay -->
	<polygon class="st15" points="620,1118.3 620,1131.6 860,1132.3 860,1117.6"/>

	<!-- butt -->
	<path class="st13" d="M1293.4,1131.6c0,4.9-4,8.8-8.8,8.8l0,0c-4.9,0-8.8-4-8.8-8.8v-13.2c0-4.9,4-8.8,8.8-8.8l0,0
		c4.9,0,8.8,4,8.8,8.8V1131.6z"/>
	<polygon class="st9" points="1276.5,1136.9 1284.5,1136.9 1284.5,1117.1 1276.5,1117.1"/>
	<polygon class="st9" points="979.4,1131.6 984.7,1131.6 984.7,1118.3 979.4,1118.3"/>

	<!-- tip -->
	<path class="st13" d="M118.2,1125.4c0,1.5-1.2,2.8-2.8,2.8l0,0c-1.5,0-2.8-1.2-2.8-2.8v-0.9c0-1.5,1.2-2.8,2.8-2.8l0,0
		c1.5,0,2.8,1.2,2.8,2.8V1125.4z"/>
	<rect x="115.5" y="1121.7" class="st13" width="12.4" height="6.5"/>

	<g class="st10">
		<polygon class="st11" points="984.7,1118.3 115.5,1121.7 115.5,1125.7 984.7,1122.3"/>
	</g>
</g>

<g id="cue-9" transform="translate(0 -180)">
	<!-- shaft -->
	<polygon class="st7" points="1284.5,1268.5 984.7,1267.3 115.5,1263.9 115.5,1257.4 984.7,1254 1284.5,1252.8"/>
	<polygon class="st4" points="984.7,1254 984.7,1267.3 1284.5,1268.5 1284.5,1252.8"/>

	<!-- skull panel -->
	<rect x="1040" y="1254.5" width="160" height="12.5" class="st9"/>

	<!-- skull head -->
	<ellipse cx="1120" cy="1260.7" rx="18" ry="9" class="st11"/>

	<!-- eyes -->
	<ellipse cx="1114" cy="1259.5" rx="3" ry="3.5" class="st4"/>
	<ellipse cx="1126" cy="1259.5" rx="3" ry="3.5" class="st4"/>

	<!-- nose -->
	<polygon class="st4" points="1120,1261 1117,1266 1123,1266"/>

	<!-- jaw -->
	<rect x="1112" y="1267" width="16" height="4" class="st11"/>
	<line x1="1116" y1="1267" x2="1116" y2="1271" class="st4"/>
	<line x1="1120" y1="1267" x2="1120" y2="1271" class="st4"/>
	<line x1="1124" y1="1267" x2="1124" y2="1271" class="st4"/>

	<!-- butt -->
	<path class="st4" d="M1293.4,1267.3c0,4.9-4,8.8-8.8,8.8l0,0c-4.9,0-8.8-4-8.8-8.8v-13.2c0-4.9,4-8.8,8.8-8.8l0,0
		c4.9,0,8.8,4,8.8,8.8V1267.3z"/>
	<polygon class="st9" points="1276.5,1268.5 1284.5,1268.5 1284.5,1252.8 1276.5,1252.8"/>

	<!-- tip -->
	<path class="st4" d="M118.2,1261.1c0,1.5-1.2,2.8-2.8,2.8l0,0c-1.5,0-2.8-1.2-2.8-2.8v-0.9c0-1.5,1.2-2.8,2.8-2.8l0,0
		c1.5,0,2.8,1.2,2.8,2.8V1261.1z"/>
	<rect x="115.5" y="1257.4" class="st6" width="12.4" height="6.5"/>

	<!-- highlight -->
	<g class="st10">
		<polygon class="st11" points="984.7,1254 115.5,1257.4 115.5,1261.4 984.7,1258"/>
	</g>
</g>


<g id="cue-12" transform="translate(0 -480)">
	<polygon class="st8" points="1284.5,1690 984.7,1688.8 115.5,1685.4 115.5,1678.9 984.7,1675.5 1284.5,1674.3"/>
	<polygon class="st4" points="984.7,1675.5 984.7,1688.8 1284.5,1690 1284.5,1674.3"/>

	<!-- gears -->
	<circle cx="640" cy="1682" r="5" class="st9"/>
	<circle cx="670" cy="1682" r="5" class="st16"/>
	<rect x="700" y="1678" width="40" height="8" class="st21"/>

	<!-- bolts -->
	<circle cx="620" cy="1682" r="2" class="st11"/>
	<circle cx="760" cy="1682" r="2" class="st11"/>

	<path class="st4"
		d="M1293.4,1688.8
		   c0,4.9-4,8.8-8.8,8.8
		   l0,0
		   c-4.9,0-8.8-4-8.8-8.8
		   v-13.2
		   c0-4.9,4-8.8,8.8-8.8
		   l0,0
		   c4.9,0,8.8,4,8.8,8.8
		   V1688.8z"/>


		<polygon class="st21" points="1276.5,1690 1284.5,1690 1284.5,1674.3 1276.5,1674.3"/>


		<rect x="115.5" y="1678.9" class="st6" width="12.4" height="6.5"/>
</g>



<g id="cue-13" transform="translate(0 -230)">

	<polygon class="st16"
		points="1284.5,1550 984.7,1548.8 115.5,1545.4 115.5,1538.9 984.7,1535.5 1284.5,1534.3"/>
	<polygon class="st4"
		points="984.7,1535.5 984.7,1548.8 1284.5,1550 1284.5,1534.3"/>

	<!-- tribal pattern from cue-11 -->
	<polygon class="st18" points="440,1538 460,1548 480,1538"/>
<polygon class="st18" points="480,1538 500,1548 520,1538 540,1548 560,1538"/>
<polygon class="st18" points="560,1538 580,1548 600,1538 620,1548 640,1538"/>

	<!-- butt from cue-13 (repositioned to match cue-11 Y) -->
	<path class="st4"
		d="M1293.4,1548.8
		   c0,4.9-4,8.8-8.8,8.8
		   l0,0
		   c-4.9,0-8.8-4-8.8-8.8
		   v-13.2
		   c0-4.9,4-8.8,8.8-8.8
		   l0,0
		   c4.9,0,8.8,4,8.8,8.8
		   V1548.8z"/>

	<!-- butt cap -->
	<polygon class="st18"
		points="1276.5,1550 1284.5,1550 1284.5,1534.3 1276.5,1534.3"/>
		
    <rect x="975" y="1535" width="10" height="14" class="st18"/>

<g>
    <polygon class="st18" points="1100,1535 1120,1535 1110,1550"/>
    
    <polygon class="st18" points="1150,1535 1140,1550 1160,1550"/>
    
    <polygon class="st18" points="1180,1535 1200,1535 1190,1550"/>
</g>
		<rect x="115.5" y="1538.9" class="st6" width="12.4" height="6.5"/>

</g>



<g id="cue-toxic" transform="translate(0 1280)">
    <polygon class="st4" points="1284.5,139.7 984.7,138.4 115.5,135 115.5,128.5 984.7,125.1 1284.5,123.9"/>
    
    <circle cx="620" cy="132" r="2" class="st13"/>
    <circle cx="650" cy="130" r="1.8" class="st13"/>
    <circle cx="690" cy="133" r="2.2" class="st13"/>
    <circle cx="720" cy="129" r="1.6" class="st13"/>

    <g>
        <polygon class="st13" points="1100,125 1120,125 1110,139 1090,139"/>
        <polygon class="st13" points="1140,125 1160,125 1150,139 1130,139"/>
        <polygon class="st13" points="1180,125 1200,125 1190,139 1170,139"/>
    </g>
    
    <rect x="975" y="125" width="10" height="14" class="st13"/>
    
    <path class="st4" d="M1293.4,138.5c0,4.9-4,8.8-8.8,8.8l0,0c-4.9,0-8.8-4-8.8-8.8v-13.2c0-4.9,4-8.8,8.8-8.8l0,0
        c4.9,0,8.8,4,8.8,8.8V138.5z"/>
    <polygon class="st13" points="1276.5,139.7 1284.5,139.7 1284.5,123.9 1276.5,123.9"/>

    <rect x="115.5" y="128.5" class="st13" width="12.4" height="6.5"/>
</g>

<g id="cue-winter-1" transform="translate(0 1390)">
    <polygon class="st6" points="1284.5,139.7 984.7,138.4 115.5,135 115.5,128.5 984.7,125.1 1284.5,123.9"/>
    <polygon class="st14" points="984.7,125.1 984.7,138.4 1284.5,139.7 1284.5,123.9"/>
    <path class="st9" d="M1289,135.2c0,2.5-2,4.5-4.5,4.5l0,0c-2.5,0-4.5-2-4.5-4.5v-6.7c0-2.5,2-4.5,4.5-4.5l0,0c2.5,0,4.5,2,4.5,4.5V135.2z"/>
    <polygon class="st10" points="1276.5,139.6 1284.5,139.7 1284.5,123.9 1276.5,123.9"/>
    <polygon class="st10" points="979.4,138.4 984.7,138.4 984.7,125.1 979.4,125.2"/>
    <path class="st14" d="M118.2,132.3c0,1.5-1.2,2.8-2.8,2.8l0,0c-1.5,0-2.8-1.2-2.8-2.8v-0.9c0-1.5,1.2-2.8,2.8-2.8l0,0c1.5,0,2.8,1.2,2.8,2.8V132.3z"/>
    <rect x="115.5" y="128.5" class="st13" width="12.4" height="6.5"/>
    <g class="st10">
        <polygon class="st11" points="115.5,128.5 115.5,132.5 1284.5,127.9 1284.5,123.9 984.7,125.1"/>
    </g>
    <!-- Snowflake motif accents -->
    <g>
        <circle cx="400" cy="131.5" r="6" fill="#CDEFFD"/>
        <circle cx="800" cy="131.5" r="8" fill="#E0F7FF"/>
    </g>
</g>

<g id="cue-fire-1" transform="translate(0 1490)">
    <polygon class="st4" points="1284.5,139.7 984.7,138.4 115.5,135 115.5,128.5 984.7,125.1 1284.5,123.9"/>
    
    <polygon fill="#E34110" points="984.7,125.1 984.7,138.4 1284.5,139.7 1284.5,123.9"/>
    <polygon fill="#F9A023" points="1080,126 1080,137.5 1284.5,139.7 1284.5,123.9"/>
    
    <polygon fill="#F92323" points="400,130 450,133 400,134 350,131"/>
    <polygon fill="#F9A023" points="600,129 650,132 600,133 550,130"/>
    
    <polygon class="st9" points="1276.5,139.6 1284.5,139.7 1284.5,123.9 1276.5,123.9"/>
    <polygon class="st9" points="979.4,138.4 984.7,138.4 984.7,125.1 979.4,125.2"/>

    <path class="st4" d="M1289,135.2c0,2.5-2,4.5-4.5,4.5l0,0c-2.5,0-4.5-2-4.5-4.5v-6.7c0-2.5,2-4.5,4.5-4.5l0,0c2.5,0,4.5,2,4.5,4.5V135.2z"/>

    <path fill="#F92323" d="M118.2,132.3c0,1.5-1.2,2.8-2.8,2.8l0,0c-1.5,0-2.8-1.2-2.8-2.8v-0.9c0-1.5,1.2-2.8,2.8-2.8l0,0c1.5,0,2.8,1.2,2.8,2.8V132.3z"/>
    <rect x="115.5" y="128.5" fill="#F93D3D" width="12.4" height="6.5"/>

    <g class="st10">
        <polygon class="st11" points="115.5,128.5 115.5,130.5 1284.5,125.9 1284.5,123.9 984.7,125.1"/>
    </g>
</g>



</svg>